/* XPM */
static char *_9e15d40787d49b79435178a9d09570bGxc4WrYmlnIoiI1d[] = {
/* columns rows colors chars-per-pixel */
"64 64 22 1 ",
"  c #1B1B1B",
". c #2B240F",
"X c #332C14",
"o c #3F2E17",
"O c #222222",
"+ c #2F2F2F",
"@ c #373737",
"# c #4B371B",
"$ c #533F1F",
"% c #5F4324",
"& c #6B4726",
"* c #774F2B",
"= c #7F5330",
"- c gray26",
"; c gray50",
": c #875733",
"> c #8F5F37",
", c #9B633B",
"< c #A36B3E",
"1 c #B37347",
"2 c #BF7B4B",
"3 c #CB7F4F",
/* pixels */
"+++++++++o$*=><<@@O+++++++++++++++&>1111122222@+++++++++++++++++",
"@@@@@@@++o$*=><<@@+*,<<<<111<,=@@+&><111222222@+++@@@@@@@@@@@@@@",
"@*:,11>@+o%*:><<@+&><222222221<=@+&><<11222222@+.$*,<,,,,,<11122",
"o=><121@+o%=>,1<@+&><1222222221,@+&:,<11222222@OX$=,,,,,,<<12222",
"o&>,<21@+o%=><1<@+&>,<122222222<@+&:,<11222221@OX#&==::>>>,<<122",
"o&:><21@+o%=><1<@+&>,<1122223221@+&:,<1122222<@+X#%&*==:>>,,<122",
"o&=><11@+o%=><1<@+&>,<<11222332<@+&:,<<122222,@+X#%&*==::>,,<122",
"o&=>,11@+o%*:><<@+&>,<<<<122233<@+&:,<<<12222,@OX#%&*==:>>,,<122",
"o&=>,11@+#%&=:>>@+&>,<<<<122233<@+&:,<<<11221>@O.#%&*===:>,,<122",
"X&=:><<@++%&&=>,@+&>,<<<<122233<@+%=,<<<<112<=+O.o$%&&&*==:>>,11",
"X&=:><1-@++++++@@+&>,<<<<112233<@+%=,<<<<112<&++O.X#$$$%%&&&*=::",
"X%=:><<-*,<<,,,*@+&>,<1<<<12233<@+%=,<<<<112<%@++OOXXooooooo$$$$",
"X%*:><<@=,,<111,@+&>,<<<<<12233<@+%=,<<<<112<$@@++++++++++++++++",
"X%*=><1@&=:><11<@+&>,<<<<<12223<@+&=,<<<<1121@@@@@@@@@@@@@@@@@@@",
"X$&=><1+$&=>,<<<@+&>,<11<<12223<@+&=>,<<<<121@@&=::,<<1111111111",
"X$&=><1+$&*:>,<1@+&><<111<11223<@+&=>,<<<<121@+*>,<<<11122121122",
"X$%&=>1+$&*:>,11@+&,<<111111223<@+&=>,,<<112<@+&>,,<<,<<<<<<<111",
"Oo#$%:1+o%&:>,11@+&>,<111111223<@+&:>,,<<111<@+&>,,,,,,,,,,,,<11",
"OXXXo&>+o$&=>,11@+&:><<<1<<1122<@+&:>,,<<<<<,@+&>,,,,,,,,,,,,<11",
"++++++@++#%&=>,,@+&=:>>>>>,,<11<@+&=>>>>>>>>:@+&:>>,,,,,,,,,>,<<",
"@@@@@@@@@+#%&*=*@+$&&&*****===*%@+$&&&&&&&&&&@+%=>>>,,,,,,,>>,<<",
"-:<<<11<*@+#$$%&@+++++++++++++@@@@++++++++++@@+%=>>,,,,,,,,>>,<<",
"$:,<<<1<>&++++++@@@++@@@@@@@@@@@@@@@@@@@@++@@@+%=>>,,,,,,,>>,,<<",
"o&=:>>,>=*+@@@@@@@@+$&***&@+o$%&&&&&&&&&&@+*1@+%=:>>>,,,,>>,,,<<",
"o%&*=:>:&++*,111<,-+%*===&@+o%&&%%&&&&&**@+:1@+%*:>>>>>,>>>,,,<<",
"X$%&*==&+O%=,<1222-+%&*&**@+o%%%$$$$%%%&*@+=1@+%*:>>>>>>>>>,,,<<",
"+o$$%%$+Oo&=>>,122-+%&*&**@+#%%$$$$$$%%&*@+*1@+%*=:>>>>>>>,,,,<<",
"OOOOOO++o$&=:>,<22-+%*=*=*@+o$$$$$$$$%%&*@+*1@+%&=::>>>>>,,,,,<<",
"++++++@+o$%&==:>1,@+$&===&@+o$$%%%%$$%%&&@+*1@+%&&==::::>>>>>>,,",
"#&=,1<>@+oo$$$$&&%@+#%%%%&@+o%%%%%%%%%%%%@+*1@+$%&&**&&&&*******",
"$>>,12<>@+OO+++@@@@@++++++++OOOOOOOOOOOO+@+*<@++$$%%%$$$#$$$$#$$",
"%:>><21,@+@+@@@@@@@@@@@@@@@@@@@@@@@+@@@@@@+*,@@+++++++++++++++++",
"$=:>,121@#&=>,<1@+%=><1<<<1111<<<<<>@@%&&@+*,@@@@@@@@@@@@@@@@@@@",
"$*=>,121@#&:><11@+&><<1<<<1111<<<<<,@o%&&@+*>@@@$&&&*==::::>,<<<",
"#&=>,12<@o%*:>11@+&>,,<,,,<<<<,,,,,<@o$&&@+*>@@o$&*==:>>,,,<<111",
"o&=:>12,@o$*=><1@+&>,,,,,,,,,,,,,>,<@o$&&@+*:@@o$%&*==::>>,,<111",
"o&=:>12>@o$*=><1@+*>,,,,,,,,,,,,,>,<@o$&&@+*=@+o$%&&*==:>>,,<111",
"o&=:>12:@o$*=><1@+*>,,,,,,,,,,,,>>,<@o$&&@+*=@+o$%&&*==:>>,,<111",
"o&=:>11=@o$*=><1@+*>,,,,,,,,,,,,>>,,+o$%&@+&*@+o$%&&*==:>>,,<<11",
"o&=:>11=@o$*=><1@+*>,,,,,,,,,,,>>>,:Oo$%%@+$&@+o$%&&*==:>>,,<<11",
"o&=:><1&+o$*=><1@+&>,<,>>>>>>>>>>>>=Oo$$%@+++++o$%&&*==:>>,,<<11",
"o%=:><1%+o$*=><1@+&:>,>>:::::::::::*Oo#$$@+++++o$%&&*==:>>,,<<11",
"o&=:><1$+o$*=><1@+&=:::==*=****=*=**Ooo##@+$&&+o$%&&*==:>>,,<<11",
"X&=:><1#Oo$*=><1@++OOOOOOOOOOOOOOOOOOOO+@@+%*&+o$%&&*==:>>,,<111",
"X&=:>11oOo$*:><1@+++@@@@@@@@@@@+O+@@@@@@@@+%*&+o$$&&*==:>>,,<111",
"X%=:>11@Oo$*=><1@+$&=:::,,,,<1>@+&<<<<<<=@+$&&+o#$%&&*==:>>,<<11",
"X%*:><1@Oo$*=><1@+%=>,,,,,,<111@+*,<<<<<<@@$%%+oo#$%&&&*==:>>>,,",
"X%*:><1@Oo$*=><1@+&=>>>>>:>,<1<@+&>,,,,,<@@o#%++oo#$%%%&&&&***==",
"X%*:><1@Oo$*=><1@+%=>>::==:><1<@+&>,,,>,<@@++++++oo##$$$$$$%%%%%",
"X%*:><1@Oo$*=><1@O%=::::===:,<<@+&>,,,>,<@@@@@@@@@@@@@@@@@@@@@@@",
"X%*:><1@Oo%*:>11@O%=:::::==:><<@+&>,,>>,<@@o&**===::,,,,<<<<1122",
"X%*:><1@Oo%*:>11@O%=:::::==:><<@+&>,,>>,,@+o%&***==:::>>,,<<1222",
"X%*:><1@Oo%*:>11@O%=:>:::===>,,@+&>,>>>,>@+o$&&&&&&*==:>>,,<<122",
"X%*:><1@Oo$*:>11@+%=:>>::===:,,@+&>,>>,,:@Oo$%%&&&&*==:>>,,<<122",
"X%*:><1@Oo$*=><1@+%=:>>::===:>,@+&>>>>>>:@OX#%%%&&&*==:>>,,<1122",
"X%*:><1@Oo$*=><1@+%=:>>:::==:>>@+&=:::::=@OX#$%%&&&*==:>>,,<<122",
"X%*:><1@Oo$*=><1@O%=:>>::===:>:@+%**=*=**@OXo$%%&&&*==:>>,,<<122",
"X%*=><1@Oo$*=><1@O%=:>>>:===:>:@+OOOOOOO+++ Xo$%&&&*==:>>,,<<122",
"X$&=><<@Oo$*=><1@O%=>>>::===:>:@@@@@@+@++++O Xo%%&&*==:>>,,<1122",
"X$&=><<@Oo$*=><1@+%=>>>::====>:@++&>,:=&%#X+O Xo$%&&&*==:>>,,<11",
"X$&*=,1+Oo$*:><1@+%*::::===**=&@+O*,<<1,:=&%#XOXXo#$$%%%%&&&*===",
".o$%&:>+Oo$*:><1@+%&*=***&&&&&%+O &><11211,:=&+  XXoooooooo#$$$$",
".Xo#$$%+Oo$*=><1@+$&&&&&%%$$#o$+O &><1112222,:@@+O              ",
"OOOOOO+++o$*::1;@+++++++++++++++O &><1<1222222@+++++++++++++++++"
};
