/* XPM */
static char *_5a20a402e1a467eb7fa2f328671f953hlsaKVlAHm0ISQhu[] = {
/* columns rows colors chars-per-pixel */
"64 64 16 1 ",
"  c #222222",
". c #2F2F2F",
"X c #373737",
"o c gray28",
"O c gray34",
"+ c gray39",
"@ c #6F6F6F",
"# c gray50",
"$ c #8B8B8B",
"% c #979797",
"& c #A7A7A7",
"* c gray70",
"= c gray75",
"- c LightGray",
"; c gray86",
": c #EFEFEF",
/* pixels */
"XOOOOOOOOOOOOOOOOOOOOOOOOOOOOOOOOO  OO$&$$&$&;;$OXX   OOOOOOOOO.",
"X O%=============%OOOOoooooooooOOO  OO&$&$$&&;;#X OOO@$$**;;;;O.",
"X @*----------;;;=oOOOXO&;;;;*&@Oo  OO$$&%$&=;;@  #========;;;O.",
"X o+$&$$&$&&$%-;;=oOOOXO@&;;;;;&OX  OO$&$$$&=;=O  O#$&$$%$&=;;O.",
"X o+$$$&$%&$%$%-;=OOOX O@$$&$*;*oX  O@%$&%$%-;=o  O&%$$%&&&$=;O.",
"X o+$$%$%$%&&$$-;=OOX  o@$%%&&;;o. XO@$%%&&$;;&X XO&$%%$&$&%=;O.",
"X o+&$$%$&$&$%$-;*OX  o@$&$%$&;;o. XO$&$&&%=;;$X oO$&&$&$&#&=;O.",
"X X+$$$$$$%$$&$-;%OX XO&$$&$&&;;o. XO$%$$&$=;;#  oO%$&$$&#$&=;O.",
"X X+%$$$$&$&$&$-;@O. XO&%$$%&$;;o  XO$$$%&%&;;O .O+$$%$&$&&&=;O.",
"X X+$&$$%$$%%&&-;+O. XO$$$%$&&;;o  XO$&$&%$=;;O .O@%%$$%$$&&=;O.",
"X X+&$$$$&$$$%&-;OO. XO$&$$&$$;;o  XO$%&&$&&;;O .O#&&%$&$%%&=;O.",
"X X+&%$$&$$&$$%-;OO. XO$$$$%&&;;o  XO$%$%$&=;;O .O#&$&$%%%&%=;O.",
"X X+$$$&$%&$&$$-=OO. XO$&$%$%&;;o  XO$&&$&$*;;o .O%%$$%&%$%&=;O.",
"X XO+&$$%$$%$$&-%OO. XO&$$$&$$;;o  XO$$$$$%&;;o .O&$$%$%$$&&=;O.",
"X XoOOO++@@#$$$-@OO. XO$&%$$$&;;o  XO$$$%&&%;;o .O&%#$$%##&$=;O.",
"X .XXXooOOOO+++*OOO. XO$$&$$&$;;o  XO$$$$$$&;;X .O$&%%&$%%%&=;O.",
"X        .XXOOOOOOO. XO%&$&$$&;;o  XO$&$&$&&;;X .O&$&%$$&$&$=;O.",
"XOOOoXXX.    XXXOOO. XO$$$%&$$;;o  XO$$%$%&%;;. .O$$$&%$$&$&=;O.",
"XOoooooOOOOOOOOOOOO. XOO$%$$$&;;o  XO$$$$$$&=;  .O&$%$%%$$#&=;O.",
"Xo  &;;&%@+ooooooOO. XoOOOOOO@&;o  XO@&&%$&$&=  .O&%$%$$$&$&=; .",
"XX  @&;;;;;;;;;;&oO.  XXXXXXoo@&o  XOOOOOOOO@&  .O$%$$%%$$&$=; .",
"X.  O@&========;;oO.               XOOOOOOOOOo  .O#$$$$##@OO@& .",
"X.  OO$$#&$$$%$=;oOXXXXXXXXXXXXXX  .....      XX .OOOOOOOOOOO@ .",
"X.  OO&%$$$$%&&=;oXOOOOOOOOOOOOOX        ...XXXX               .",
"X.  OO$&$#%&$&$=;oXXOOOOOOOOOOOOOXXXXXXXoooooooooooOOOOOOOOOOOO.",
"X.  OO&$&$$$&$&=;o X&***************************************&oO.",
"X.  OO$$%%$$$&&=;o XO&**===================================;;&O.",
"X.  OO$&$$$$&$%=;o .XO+%%$&$&$$&$#&$$&$$&&%$&&%$&$$&$$&$$&$=;=O.",
"X.  OO%$$%$$$&$=;o  XOO+$%$%$$#$&$&$&$&$$&%&%$$%$$$$&$%&&$%$-;o.",
"X.  OO$$##%%$&%=;oX .XOO++@$$&$&$%$&$&#$&$&%$%#$$&$&$&$%&&%&-;o.",
"X.  OO$&##$$$$&=;oO  .XOOO+$$&$%%%$%$%#$$&#$&$%&#%%$#$$$%$&$-;o.",
"X.  OO%%$%$$$&$=;oOX   .XXOOOO+$$$&#$#$%$$$&$&$%%%$&$%$$$&$&-;o.",
"X.  OO%$%%&&#$&;&oOOOX     XXoO+$%$$&$$$##%$$$$%$&&$&$##$$&&-;o.",
"X.  OO$&$&%&%$$;$oO #;;=$    XoO#%%$$$&$##$&$##$&$#$$%##$&$&-;o.",
"X.  OO%%&%$&$$=;@O o&&$=;;%OX XO+%%$&$$$$%$$%##%$$&$$%$&$$&$-;o.",
"X.  OO$&$&&#&$=;oO  &%&%&&;;O  XO+$%$$#&$$$&$%%$$%$&##$$&$&&--o.",
"X.  OO&$%&&$&&=;oX X$%%&%&$;%X .oOOOOOOOOOOOO+++#$%$&$$%$&$&-&O.",
"X.  OO$&%$&&$$=&oX O%$%$%%&;;O  XooOOOOOOOOOOOOOOOOO+++++++#&#O.",
"X.  OO%$&&%$$&=@O  OOOO@$%&=;OX          .XXXoooOOOOOOOOOOOO#oO.",
"X.  OO$&$$%$$$=oO       XX#%=OOXX...................XXXXXXXXXXO.",
"X.  OOOOO@%%$=@oOOOOOOOOOOOOOOOOoooooooooooooooooooooooooooooOO.",
"X.  XOOOOOOO@&oXXXooooooooOOOOOOOOOOOOOOOOOOOOOooOOOOOOOOOOOOOO.",
"XX    XXXOOOOooOXX*;;;;;;;;;=&@@OOooooo@%*;;%oOOX=;;;;;;;;;;&@O.",
"XOXX.         XO. %*;;;;;;;;;;;&@OX $;;;;;;;;%OO $=------;;;;&O.",
"XOOOOOOooXXXXXOX  @%$$&$&$$$=;;;&OX O$$$%$$$-*OO O@&$$$%&&$-;;O.",
"XOOXXOOOOOOOOOO.  O@$%&&$%&%%$=;=OX O&%$$$%$&;OO O+$&%#$$$$&;;O.",
"XOXX.#&&&&&&#OO.  XO%$&$$&$$$$&;;OX O$&$$&&&$;@O XO$$&$$$$&$;;O.",
"XOX  O#=;;;;&#O.  XO$&$$$%%%$&$;;OX O#$%$$%$&;$O XO@&$%$$$$&;=O.",
"XOX  O+$$$=;;&o.  XO$$&&$%$$&$$;;O. O@$%%$%$$;=O .O+$$&&%%$$;&O.",
"XOX  O+$%&$&;&o.  XO$&$&$&&%$$$;;O. XO&$$%$%&=;O  O+$&$$&$$=;$O.",
"XOX  O+$$$&$;&o.  XO$$&$%%&$$&$;;O. XO$$&$$$$&;O  O+$%$$$&$=;$O.",
"XOX  O+%&&$&;&o.  XO$$&$%&%$$$&;;O. XO$$$%&%$&;O  OO%$$%$$&-;@O.",
"XOX  O+%%$$$;&o.  XO$$$&&$$$%$$;;OX XO&$&$$$&$;O  OO$$##%$$;;+O.",
"XOX  O+%$&$$;&o.  XO$$&$&%$%&$$;;OX XO%$%$$$$$=O  OO$&$#$&$;;OO.",
"XOX  O+$$%$$;&O.  XO$%%&&$$$$&$;;OX XOOOOOOOOO%O  oO%%$&&$$;;oO.",
"XOX  O+&$$&&;&o.  XO%$&$&$%&$%&;;OX       XXXXXO. oO$$&%%#&;;oO.",
"XOX  O+$%$$&;&o.  XO$%$&%%%%&$$;;O  oooooOOOOOOO. XO@%$%&$&;;oO.",
"XOX  O+%$&&$;&o.  XO$$%&$%$&$$&;;O  &;;;;===&$OOX XO@%&&$&$;;oO.",
"XOX  O+$&$$$;&o.  XO@&$$&&%%$$$=;O  #&;;;;;;;=#OX .O+%$&&$$;;oO.",
"XOX  O+%$%$&;&o.  XOOOOOOOOOOO@&=O  O#$&$&=*-;%OX  O+$&%%#&;-oO.",
"XOX  O+%&$&$;&oX  XXXXXXXXXXXXO@&O  OO&$%$$&=;=@X  OO%$%&$&;=oO.",
"XOX  OO+$&$$=&oXX              ..X  OO%%&$%%=*:#X  oO%&&$&$;=oO.",
"XOX  XOOOOOOO#oOXX            ..XO  OO%$&$$%%=:&o  oO%$#&$$;*oO.",
"XOO            OOOOOOOOOOOOOOOOOOO  OO%$%%$&*%:&O  XO$%%%$&;%OO."
};
