/* XPM */
static char *_55154db47a2472cfed622405fc51e7ftZNibXwE7ScDoNP2[] = {
/* columns rows colors chars-per-pixel */
"64 64 15 1 ",
"  c #2F2F2F",
". c #373737",
"X c gray26",
"o c gray28",
"O c gray34",
"+ c #5B5B5B",
"@ c gray39",
"# c #6F6F6F",
"$ c gray50",
"% c #8B8B8B",
"& c #979797",
"* c #A7A7A7",
"= c gray70",
"- c gray75",
"; c LightGray",
/* pixels */
"@&&*&**-====;OoooooooooooooooOo @&&*&**-=*-===;Ooooooooooooooooo",
"@&%&**-=====;OoOOOOOOOOOOOOOOOo @&%&**-==-====;OooOOOOOOOOOOOOOO",
"@%&&=***-===;OoooooooooooooooOo @%&&=***-**===;Oo.oooooooooooooo",
"@&%****==-=-;Oo.@$$$$$$$$$$$&Oo @&%****==*=-=-;Oo @$$$$$$$$$$$$&",
"@%&&=*====-=;Oo @&%**=====--*Oo @%&&=*======-=;Oo @&%**======--*",
"@&%*&=*==-=-;Oo @%%%&===-=--=Oo @&%*&=*==*=-=-;Oo @%%%&===--=--=",
"@%&***==-=-=;Oo @&%&=*=-=-=--Oo @%&***==-===-=;Oo @&%&=*=-==-=--",
"@&%**-**=-=-;Oo @%&*&=-===--;Oo @&%**-**=**-=-;Oo @%&*&=-====--;",
"@%*&***=-=-=;Oo @&%&**====--;Oo @%*&***=-*==-=;Oo @&%&**=====--;",
"@&%*&**-===-;Oo @&&%**===---;Oo @&%*&**-=*-==-;Oo @&&%**====---;",
"@%&%*=**-===;Oo @&%***==--=-;Oo @%&%*=**-**===;Oo @&%***==---=-;",
"@&%&*=*=*==--Oo @%*&***====-;Oo @&%&*=*=**===--Oo @%*&***=====-;",
"@%**&***=*-==Oo @&%*&*=*==--;Oo @%**&***=***-==Oo @&%*&*=*===--;",
"@%&&**=**==-*Oo @%*&*=*=*==-;Oo @%&&**=**=*==-*Oo @%*&*=*=**==-;",
"@%%%%%%%%%%%&Oo @%&*=*=*=*=-;Oo @%%%%%%%%%%%%%&Oo @%&*=*=*==*=-;",
"oooooooooooooOo @*%&*=*-*==-;Oo oooooooooooooooOo @*%&*=*-**==-;",
"OOOOOOOOOOOOOOo @&*&**-=-===;Oo OOOOOOOOOOOOOOOOo @&*&**-=--===;",
"oooooooooooooOo @&&*&**-====;Oo oooooooooooooooOo @&&*&**-=====;",
"@$$$$$$$$$$$&Oo @&%&**-=====;Oo @$$$$$$$$$$$$$&Oo @&%&**-======;",
"@&%**=====--*Oo @%&&=***-===;Oo @&%**=======--*Oo @%&&=***--===;",
"@%%%&===-=--=Oo @&%****==-=-;Oo @%%%&===-===--=Oo @&%****===-=-;",
"@&%&=*=-=-=--Oo @%&&=*====-=;Oo @&%&=*=-==--=--Oo @%&&=*=====-=;",
"@%&*&=-===--;Oo @&%*&=*==-=-;Oo @%&*&=-==-==--;Oo @&%*&=*===-=-;",
"@&%&**====--;Oo @%&***==-=-=;Oo @&%&**======--;Oo @%&***==--=-=;",
"@&&%**===---;Oo @&%**-**=-=-;Oo @&&%**=====---;Oo @&%**-**==-=-;",
"@&%***==--=-;Oo @%*&***=-=-=;Oo @&%***==-==-=-;Oo @%*&***=--=-=;",
"@%*&***====-;Oo @&%*&**-===-;Oo @%*&***==*===-;Oo @&%*&**-====-;",
"@&%*&*=*==--;Oo @%&%*=**-===;Oo @&%*&*=*==*=--;Oo @%&%*=**--===;",
"@%*&*=*=*==-;Oo @&%&*=*=*==--Oo O%*&*=*=**===-;Oo @&%&*=*=**==--",
"@%&*=*=*=*=-;Oo @%**&***=*-==Oo O%&*=*=*==**=-;Oo @%**&***==*-==",
"@&&%*=*&*==-;Oo @%&&**=**==-*Oo @*%&*=*-**-==-;Oo @%&&**=***==-*",
"O&&&&*&=-===;Oo.@%%%%%%%%%%%&Oo @&&%**-=--====;Oo @%%%%%%%%%%%%&",
"@&&=&%*-====;Oo.oooooooooooooXo @&&&%**-=*-===;Oo.oooooooooooooo",
"@&%&**-=====;OooOOOOOOOOOOOOOOX @&%&%%-==-====;OooOOOOOOOOOOOOOO",
"@%&&=***-===;Oo.ooooooooooooooo @%&&*%**-**===;Oo.oooooooooooooo",
"@&%****==-=-;Oo.@$$$$$$$$$$$&Oo @&%*=%*==*=-=-;Oo @$$$$$$$$$$$$&",
"@%&&=*====-=;Oo @&%**=====--*Oo @%&&*%&=====-=;Oo @&%**======--*",
"@&%*&=*==-=-;Oo @%%%&===-=--=Oo @&%*&&%==*=-=-;Oo @%%%&===--=--=",
"@%&***==-=-=;Oo @&%&=*=-=-=--Oo @%&***&&-===-=;Oo @&%&=*=-==-=--",
"@&%**-**=-=-;Oo @%&*&=-===--;Oo O%%%*-*%=**-=-;Oo @%&*&=-====--;",
"@%*&***=-=-=;Oo @&%&**====--;Oo @$$%%*&%&*==-=;Oo @&%&**=====--;",
"@&%*&**-===-;Oo @&&%**===---;Oo @&==%%%%%%-==-;Oo @&&%**====---;",
"@%&%*=**-===;Oo @&%***==--=-;Oo @%&*=%%*-*%===;Oo @&%***==---=-;",
"@&%&*=*=*==--Oo @%*&***====-;Oo @&%&*=*=*-*$%&-Oo @%*&***=====-;",
"@%**&***=*-==Oo @&%*&*=*==--;Oo @%**&***=*--#$$Oo @&%*&*=*===--;",
"@%&&**=**==-*Oo @%*&*=*=*==-;Oo @%&&**=**=*=*$+Oo @%*&*=*=**==-;",
"@%%%%%%%%%%%&Oo @%&*=*=*=*=-;Oo @%%%%%%%%%%%%#OOo @%&*=*=*==*=-;",
"oooooooooooooOo @*%&*=*-*==-;Oo ooooooooooooo.oOo @*%&*=*-**==-;",
"OOOOOOOOOOOOOOo @&*&**-=-===;Oo OOOOOOOOOOOOOOOOo @&*&**-=--===;",
"oooooooooooooOo @&&*&**-====;Oo oooooooooooooooOo @&&*&**-=====;",
"@$$$$$$$$$$$&Oo @&%&**-=====;Oo @$$$$$$$$$$$$$&Oo @&%&**-======;",
"@&%**=====--*Oo @%&&=***-===;Oo @&%**=======--*Oo @%&&=***--===;",
"@%%%&===-=--=Oo @&%****==-=-;Oo @%%%&===-===--=Oo @&%****===-=-;",
"@&%&=*=-=-=--Oo @%&&=*====-=;Oo @&%&=*=-==--=--Oo @%&&=*=====-=;",
"@%&*&=-===--;Oo @&%*&=*==-=-;Oo @%&*&=-==-==--;Oo @&%*&=*===-=-;",
"@&%&**====--;Oo @%&***==-=-=;Oo @&%&**======--;Oo @%&***==--=-=;",
"@&&%**===---;Oo @&%**-**=-=-;Oo @&&%**=====---;Oo @&%**-**==-=-;",
"@&%***==--=-;Oo @%*&***=-=-=;Oo @&%***==-==-=-;Oo @%*&***=--=-=;",
"@%*&***====-;Oo @&%*&**-===-;Oo @%*&***==*===-;Oo @&%*&**-====-;",
"@%&*=*=*=*=-;Oo @%&%*=**-===;Oo @%&*=*=*==**=-;Oo @%&%*=**--===;",
"@*%&*=*-*==-;Oo @&%&*=*=*==--Oo @*%&*=*-**-==-;Oo @&%&*=*=**==--",
"@&*&**-=-===;Oo @%**&***=*-==Oo @&*&**-=--====;Oo @%**&***==*-==",
"@&&*&**-====;Oo @%&&**=**==-*Oo @&&*&**-=*-===;Oo @%&&**=***==-*",
"@&&*&**-====;Oo.@%%%%%%%%%%%&Oo @&&*&**-=*-===;Oo.@%%%%%%%%%%%%&"
};
