/* XPM */
static char *ce55488b0aa74677c2b260f0ea333014T5OY21DvhKaDEbPC[] = {
/* columns rows colors chars-per-pixel */
"64 64 19 1 ",
"  c #332C14",
". c #3F2E17",
"X c #4B371B",
"o c #533F1F",
"O c #5F4324",
"+ c #6B4726",
"@ c #774F2B",
"# c #7F5330",
"$ c #875733",
"% c #8F5F37",
"& c #9B633B",
"* c #A36B3E",
"= c #B37347",
"- c #BF7B4B",
"; c #CB7F4F",
": c #CF8353",
"> c #D78B5B",
", c #DF9363",
"< c #EFA373",
/* pixels */
"O++OOOOO++++++OOOOOO++OOOOOOOO@OO##++OOOooooOOOO+++OOOoooooOOOOo",
"->>>---->,,,>>>----->,>-------,=-<<<,,>--------->,>------------,",
"O%%*&$$%*=;;=**&%$##$&*&$#@@##-o+*=====&#@+++++@%**$#@@@####@@+-",
"o$$**$$%&=-:;=**&%$##%*=&$####-XO%*===-=&$###@@@#&*&#@@@####@@@-",
"o##**%$&**=;:-=**&%$##&==&####-XO$%&=---=*&&&$###$**%@@@####@@@-",
"o##&*&%&*==-:;=**&&%$#$*=*$###-XO##%*=-=*==--*&&%%*=&#@####@@#@-",
"o@@&=&%&*===;:-*&&&&%$$&==&###-XO###%*==*&&*====**--&#@####@###-",
"o@@%=*&&*====;;=&&&%%%%&*=*$##-o+%$#$&*=*&$$%%&&*=--*%#####@###-",
"O@@$==&&*****=-=*&%%%%%%&==&##-o+&$##$&*=&$#@@@#$&***&%$$$#####-",
"O++#*=*&&*****=-=&%%%%&&&*=*%$:o@&%$##$&*=&$@+++@##%&**&%$##@#$>",
"+@@#&==&&&&&&&&=-*%$$%&&&&*===>o@*&$####&*=&$@@@@@##%*=*&$#@@#%>",
"@###*--&%%%%%$%*==&$$$%&&&&=>,>O$=*&#@@@#&*=&$#@@###$%*==&#@@#&,",
"###$&--*%$$$$##%==*%$$%&&&&=>,,O$;-*$@++@#&==&$######$&=-*$#@#&,",
"%$$$%*=*%######$*=*%#$%&*&%&->,O$--=&#+O+@$*-=%$$$####%*-=%#@#&,",
"&%%$#$*=&#@@@@@#&=*$##$&&&%%*;,O$=--*$@OO@#&==&$$$###$%&==&#@#&,",
"*&&$##%*&@+++@@#&=*$##$%&&%$%*>O#====&#+OO#%=-*%$$###$$&*=*$@#&,",
"*&&$##$&&@OOO++#&=*%###$%%%$#$:O#=***=&#++@$*-=%$$$$$$$%&=-&#@&,",
"*&&%$##&&$OOO++@$**&###$%%%$##-o@=*&&*=&#@@$*-=&$%%%$$$$&-:=$#%,",
"*&&%$##%*$OOOO+@#%**$##$%$$$$#-o+==&%*=&#@#%*=*&%%&%%$$$&=:-&$&>",
"*%%%$##&*%@OOO++@$&*&##%%$$$$#-o+*=*&*=*$##&==&%&&&&%%$$%&==***>",
"*%%%$##&=*#+OOO+@#%**%$&&$$$$$-XO&==**=*%##%==&%%&&&&%%%%&&*=-->",
"*%%$$$#%=-*$OOO++@$&**&&&%$$$$-XO&=;=*==&##$*=*&&&&&&&&&&&&&=>>,",
"*$$$%$#%=>:&+OO+@@#%*=&&&&%%%$-XO&=:-*==*$##%==&&&**&&&&&&&%*>>,",
"&$$$%%$$=>>*@OOO+@#$*=*%%&&&%$-XO&=:-**-=&##$*=*****&&&***&%&-:>",
"&$$$%%%%*;;=$+OOO@@$*=*%$&&&%$-XO%*--**==*%##&==***********&&-;>",
"&###%&%%*--;=$+OO+@$*-*$$%&&&$-XO%&=-*&*==&$#%=-=***********=:>>",
"&###%%%%*=;,>*#OO+@$=;=%$$&&&%-o+%&=-=***==&$%*--=******==*=->:>",
"*%%#$%%%*=:<<=#OO+@$=;=&$$%%&&-o+%%*-=***===&%&-;=*****====-;;;>",
"*&&$#$%%*-;<<=#OO+@$*-=&%%$$%&:o+$$&=-=*&*=-*%&=;-*****===-;---,",
"=&&##$$&*-;,,-$@+@#%*=*%%&%$$%:o+%#%=;-*&&=-=&&*--=*=====-:;=*=,",
"=&&###$&=;-->;&#@@#&==&%%&&%$%-o+%$$*;-*&&*=-=**-;=*=====;:-*&*,",
"@@@OOOO+#%#@$%#OooO+#@+O++++++$.o+OO+#$@+++@#$#@$%$#####$%%$@@@-",
"ooooXXXoO+ooO++oXXXoOoXXXoooooO .oXXXoOOoooooOOOOO+OOO+OO++OOoo=",
"-:::---->>>::>>>:--:>:----:::->*=--=--:>>::::>>>>>>>>>>,,,,,>::<",
"#&&&&##$*-=&&=-=*&&*=*$#$%&&&%-o+%####&*==&&&*===-:;-==;:>>>;**>",
"###%&&$$&=-*&*==***==*$##%&&&&-o+%$####&=-*&&&*==-:>-=*=;>>>;**>",
"@###$&&%%*-=&&=*&&=-;*###$%&*&:o+%%$###$*-=&%%&&=-,,:=**=:>>:=*>",
"###@@$*&&*==&&==&%*;:*###$%&**:o+%$$$$#$&==&%$$%&=,,,:**=;>,>=*>",
"###@O@%***==*&*=&$&-;=%##$%&**:o@%###$$$%*=*%$$$&*;,,>***->>:=*>",
"###@OO#&**=-*&=-*$&-;-&$#$%&*=>o@&$##$$$$*=*%$$$%&=-;;;;::>>:-*>",
"###@+O@$&=-:-*=:=&*-::-&%$%&*=>o@&$###$$$&=*%$$$%&**====;:>>>;*>",
"###@++@#$&-,>==;;*=-::;-*&%&*=>O#*%####$$%**&$$$$%&*****=;>>>;=>",
"@@@@@@@@#$*>>=&=--;>;=---=&&*=>O#*&$##$$#$&**&$$$$%&*****=:>>:=>",
"@@@@@@@@##&-:=%%*->,;**==-=***>O#*&%$$$$$#$*=&$###$%&****=;>,>=>",
"@@@@@@####$=-*##%*:,:=**=--=**:o@**&%%%%$$$&=*%$###$&*****->>:=>",
"+@@@@######&=&##$&->>-=**=;;=*:o@**&&&%%%%%*=*%$###$%&****->>:=>",
"@@@########&=&##$*-;::-=*=-::-:o@****&&%%&&*=*&$####%&&***->>:=>",
"@#########$=-*$#%=;--;:-:-->>->o@*****&&%&&*==&$$##$%%&&**=:>;*>",
"@########$&:>=$$&=;-=-:;;::>>:>o@*****&&&&&*--*$$$#$%%%&**->>-&-",
"@########&=>>=&$&=;-*=:;=;:>>>>O#******&&%%&=-*%#$$$%%&&==;,,-&-",
"@#####@#$*====*%%=;-*=:;*=;>>>>O$*******&%%%*-=&$$%%%&*=---:>-&-",
"@####@@#%==&&*=&%*-=*->;**=:>>,O$=******&%$$&==*&%%&&======-:-&-",
"@####@@#&=*%$&=*&&-=*->;**=;>,,+%=*******&%$$&==*&&&===*&&&=:-&-",
"@######$*=&$#%*=&&=-=-:;***->>,+%-=******&%$$%*==***=*&%%%&=::*-",
"@#####$&*&%##$&=&&*-==;;======>+%;=******&%$$$&*--=**&%$$%&&-;=-",
"@#####&=*%$###&=*%*;==-;;====*:O#-=*&&***&&%$$$&=:;*&$$%%%%&&==>",
"@####$&=*%####&=&%*-=*=-;;==**:o@==*&&&&&&&%%%$%*--*$#$%%&&&&&*>",
"@@@##$*=*%##@@&=&$*==**=-:;=*&:o+*--=*&&&&&&&&%%&**&###$%&&&&%&>",
"@@@##$*=*%#@+@%*&$&=*&&*=;:=&&-o+&-:;====&&&&&%%&&&$####%&**&$%>",
"@@@##%*=*%#@O@%*&$&=*%%&*-:-&%-XO%=:;=-::-&&&&%$%&&$#@##$%&*&$$>",
"@@@#$*==&$#@O@%*%#&=*$$%&-:=%$-XO%*-=&&->>=&%%%$%&&$#@@#$%&&&$#-",
"+@@#&==*&$#@O@&*%#&=&##$&=;*$#-XO$&==&$&->;*&%%%&&&$####$%%&&$#-",
"O@@$*=*&&$#@@#*=%#%=&#@#%=-*$#-XO$%*=*$#&-:;=&&&&&%$$##$$%%%%$#-",
"XOO+#@+++OOOoO+@+O+@+oooO@#@+O$ XOO+##+OO+#$#@++@++OOO++++OOOOO="
};
