/* XPM */
static char *_c76eecfab024b3d9ee5bf2532b13270Tivgz4n1JNnRVkZs[] = {
/* columns rows colors chars-per-pixel */
"64 64 22 1 ",
"  c #1B1B1B",
". c #2B240F",
"X c #332C14",
"o c #3F2E17",
"O c #222222",
"+ c #2F2F2F",
"@ c #373737",
"# c #4B371B",
"$ c #533F1F",
"% c #5F4324",
"& c #6B4726",
"* c #774F2B",
"= c #7F5330",
"- c gray26",
"; c gray50",
": c #875733",
"> c #8F5F37",
", c #9B633B",
"< c #A36B3E",
"1 c #B37347",
"2 c #BF7B4B",
"3 c #CB7F4F",
/* pixels */
"+++++++++++++++++@2222221<1<>& O+++++++++++++++@;1::*$o+++OOOOOO",
"              O+@@:,2222111<>& O+$o#$$%%&&&&&$+@1<>=*$oO+%$$#oX.",
"$$$$#ooooooooXX  +&=:,11211<>& O+%&&&&&***=*&%+@1<>:*$oO+>:&%$o.",
"===*&&&%%%%$$#oXXOX#%&=:,1<<,*O+@&=**===::::*%+@1<>:*$oO+1,=*&$X",
"11<,,>>:==*&&&%$oX O+X#%&=:,>&++@:>====::>>>=%+@1<>=*$oO@<<>=&$X",
"2211<,,>>:==*&&%%oX O++++@+@@@@@@:>:===::>>>=%O@1<>=*$oO@<<>=&$X",
"221<<,,>>:==*&&&%$oX +++OOOOOOO+@:>:===:>>>:=%O@1<>=*$oO@1<>=*%X",
"221<<,,>>:==*&&&%%$oXO@**=*=**%+@:>:===::>>:=%O@1<>=*$oO@1<>:*%X",
"221<<,,>>:==*&&&%%$#XO@=:::::=&+@>>:==:::>>:=%+@1<>=*$oO@1<>:*%X",
"2211<,,>>:==*&&&%%%#XO@:>>>>>>&+@,>:===::>>:=%+@1<>=*$oO@1<>:*%X",
"221<<,,>>:==*&&&&%%$oO@:,,>>,>&+@,,:===::>>:=%+@11>:*$oO@1<>:*%X",
"221<<,,>>:==*&&&&&&$o+@>,>>>,>&+@,,>===:::>:=%O@11>:*%oO@1<>:*%X",
"2221<<,,>>:::==***&%o+@,,>>,,>&+@<<>:==:::::=%O@11>:*%oO@1<>:*%X",
"2211<<<<,,,,::===**&o@@<,>>,,>&+@<<>:==:::::=%O@11>:*%oO@1<>:*%X",
"@@@@@@@@@@@@@@@@@@@@@@@<,>,,,>&+@<<,:===::::=%O@1<>=*$oO@1<>:*%X",
"%%%%%$$$$$$##oo++++++@@<,>,,,>&+@<1<>:==::>>=%+@1<>=*$oO@1<>:*%X",
"==***&&&&%%%$#oo++%#o@@<,,,,,>&+@<1<,>:>>>>>=&+@1<>=*$oO@1<>:*%X",
",,>>>:==*&&&%$#oo+%%$@@<<<<<<,*+@111<,,,,,,>=%+@1<>=*$oO@1<>:*%X",
"11<<,>>:==*&&%$#o+&&$+@=<<<<<<&+@>1<,,,,:::=&$+@1<>=*$oO@11>:=%X",
"111<,,>>:==*&&$$o+&*%+@@@@@@@@+O+@@@@@@@@@@@+++@1<>:*$oOo11>:=&X",
"111<,,>>:==*&&%$o+&*%+@@+OOOOOOOOOOOOOOOOOOOO++@1<>=*$oO#1<>:=&X",
"11<<,,>>:==*&&%$o+&&$+@##ooO**=*=****=*==:::=&+@1<>=*$o+$1<>:=&o",
"11<<,,>>:==*&&%$o+++++@$$#oO*:::::::::::>>,>:&+@1<>=*$o+%1<>:=%o",
"11<<,,>>:==*&&%$o+++++@%$$oO=>>>>>>>>>>>>,<,>&+@1<>=*$o+&1<>:=&o",
"11<<,,>>:==*&&%$o+@&$+@%%$oO:,>>>,,,,,,,,,,,>*+@1<>=*$o@=11>:=&o",
"11<<,,>>:==*&&%$o+@*&+@&%$o+,,>>,,,,,,,,,,,,>*+@1<>=*$o@=11>:=&o",
"111<,,>>:==*&&%$o+@=*+@&&$o@<,>>,,,,,,,,,,,,>*+@1<>=*$o@:21>:=&o",
"111<,,>>:==*&&%$o+@=*+@&&$o@<,>,,,,,,,,,,,,,>*+@1<>=*$o@>21>:=&o",
"111<,,>>::==*&%$o@@:*+@&&$o@<,>,,,,,,,,,,,,,>&+@1<>=*$o@,21>:=&o",
"111<<,,,>>:==*&$o@@>*+@&&$o@<,,,,,<<<<,,,<,,>&+@11>:*%o@<21,>=&#",
"<<<,>::::==*&&&$@@@>*+@&&%o@,<<<<<1111<<<1<<>&+@11<>:&#@121,>=*$",
"@@@@@@@@@@@@@@@@@@@,*+@&&%@@><<<<<1111<<<1<>=%+@1<,>=&#@121,>:=$",
"+++++++++++++++++@@,*+@@@@@@+@@@@@@@@@@@@@@@@@@@@@@@+@+@,12<>>:%",
"$$#$$$$#$$$%%%$$++@<*+@+OOOOOOOOOOOO++++++++@@@@@+++OO+@><21,>>$",
"*******&&&&**&&%$+@1*+@%%%%%%%%%%%%o+@&%%%%#+@%&&$$$$oo+@><1,=&#",
",,>>>>>>::::==&&%+@1*+@&&%%$$%%%%$$o+@&===&$+@,1>:==&%$o+@++++++",
"<<,,,,,>>>>>::=&%+@1*+@*&%%$$$$$$$$o+@*=*=*%+-22<,>:=&$o++OOOOOO",
"<<,,,,>>>>>>>:=*%+@1*+@*&%%$$$$$$%%#+@**&*&%+-221,>>=&oO+$%%$$o+",
"<<,,,>>>>>>>>>:*%+@1=+@*&%%%$$$$%%%o+@**&*&%+-2221<,=%O+&==*&%$X",
"<<,,,>>>,>>>>>:*%+@1:+@**&&&&&%%&&%o+@&===*%+-,<111,*++&:>:=*&%o",
"<<,,,>>,,,,>>>:=%+@1*+@&&&&&&&&&&%$o+@&***&$+@@@@@@@@+*=>,>>:=&o",
"<<,,>>,,,,,,,>>=%+@@@++@@@@@@@@@@@@@@@@@@@@++@@@++++++&><1<<<,:$",
"<<,>>,,,,,,,,>>=%+@@++++++++++@@@@+++++++++++++@&%$$#+@*<11<<<:-",
"<<,>>,,,,,,,>>>=%+@&&&&&&&&&&$+@%*===*****&&&$+@*=*&%#+@@@@@@@@@",
"<<,>,,,,,,,,,>>:&+@:>>>>>>>>=&+@<11<,,>>>>>:=&+@,,>=&%#++@++++++",
"11<,,,,,,,,,,,,>&+@,<<<<<,,>:&+@<2211<<1<<<>:&+@11,>=&$o+>&oXXXO",
"11<,,,,,,,,,,,,>&+@<111<<,,>:&+@<322111111<,>&+@11,>:&%o+1:%$#oO",
"111<<<<<<<,<<,,>&+@<211<<,,>=&+@<322111111<<,&+@11,>:*&$+1>=&%$X",
"22112122111<<<,>*+@121<<<<,>=&+@<32211<111<<>&+@1<,>:*&$+1<>=&$X",
"1111111111<<,::=&@@121<<<<,>=&+@<32221<<11<,>&+@<<<,>=&$+1<>=&$X",
"@@@@@@@@@@@@@@@@@@@1211<<<<,=&+@<32221<<<<<,>&+@<11<>:=&@1<>=*%X",
"++++++++++++++++@@$<211<<<<,=%+@<33221<<<<<,>&+@,111<,,=@<<>:*%X",
"$$$$oooooooXXOO++@%<211<<<<,=%+@<33221<<<1<,>&+@*,,,<<,*-<<>:=%X",
"::=*&&&%%$$$#X.O++&<211<<<<,=%+@<332211<<<<,>&+@@++++++@-1<>:=&X",
"11,>>:==*&&&%$o.O+=<211<<<<,=%+@<332221<<<<,>&+@,>=&&%++@<<>:=&X",
"221<,,>:===*&%#.O@>12211<<<,:&+@<332221<<<<,>&+@>>:=&%#+@11,>=&o",
"221<,,>>:==*&%#XO@,22221<<<,:&+@<332221<<<<,>&+@<<>:*%o+@11,>=&o",
"221<,,>::==*&%#X+@,222221<<,:&+@<23322211<<,>&+@<1<>=%o+@11<>=&o",
"221<,,>>:==*&%#X+@<2222211<,:&+@1223222211<,>&+@<1<>=%o+@12<>:&o",
"221<<,>>>::==&#XO@12222211<,:&+@<222222221<,>&+@<1<>=%o+@12<,>&o",
"22221<<,,,,,,=$XO@22222211<,:&+@,1222222221<>&+@<1,>=%o+@121<>=o",
"22111<,,,,,<,*$.+@22222211<<>&+@=<122222222<>&+@<<>:*%o+@>11,:*@",
"@@@@@@@@@@@@@@+++@222222111<>&+@@=,<111<<<<,*+@@<<>=*$o++@@@@@@@",
"+++++++++++++++++@2222211111>&+++++++++++++++O@@<<>=*$o+++++++++"
};
