/* XPM */
static char *_125ffad327d41dca7b3b2a83d80f70eVLFBOnrnqvQvC69m[] = {
/* columns rows colors chars-per-pixel */
"64 64 16 1 ",
"  c #222222",
". c #2F2F2F",
"X c #373737",
"o c gray28",
"O c gray34",
"+ c gray39",
"@ c #6F6F6F",
"# c gray50",
"$ c #8B8B8B",
"% c #979797",
"& c #A7A7A7",
"* c gray70",
"= c gray75",
"- c LightGray",
"; c gray86",
": c #EFEFEF",
/* pixels */
".OO%;&$%%%$OX  O&:%*&$%%$%OO  OOOOOOOOOOOOOOOOOOO            OOX",
".Oo*;$$&#$%Oo  o&:=%%$$&$%OO  OX..            XXOo#OOOOOOOX  XOX",
".Oo=;$&$&&%Oo  X#:*=%%$&%%OO  X..              XXo&=$$&$+OO  XOX",
".Oo=;&$&%$%OO  X@=;=&$$%$&OO  O&@OXXXXXXXXXXXX  Xo&;$&$&%+O  XOX",
".Oo-;&#%%&$+O  XO%;-*=&$&$#O  O=&@OOOOOOOOOOOX  .o&;&$%$%+O  XOX",
".Oo;;$$&&$%+O. XO#=;;;;;;;&#  O;=$$$%%&&$$&@OX  .o&;$$$&$+O  XOX",
".Oo;;$&$&&%@OX XOO$&===;;;;&  O;;&$$&$%$&%$$OX  .o&;$&&$%+O  XOX",
".Oo;;&$&%$%@OX .OOOOOOOooooo  O;;$$&%%%%&$%$OX  .o&;&$$%$+O  XOX",
".Oo;;&#%%&$$Oo .OXXXXX       XO;;&%$&%$&$&$%OX  .o&;&&$$&+O  XOX",
".Oo;;$$&&$%%Oo  O%OOOOOOOOOX XO;;$&$$$$&&%%$OX  .O&;$$%$$+O  XOX",
".OO;;$&$#$&$OO  O=$$$$$%$%OX XO;;$$&%$%&$&$$OX  .o&;$$&$%+O  XOX",
".O+;;$$%##$$OO  O;$&$$$&$&OX XO;;$$%$$$&&$$$OX  .o&;$$$%%+O  XOX",
".O@;-&$$%$$%OO  O;&$%&%$$$OX .O;;&$$$%&%$&$$OX  .o&;&$&&%+O  XOX",
".O$;=$&$$$%$+O  O;&$$$$&$$OX .O;;$&$$&%%$&$$OX  .o&;$&$$$+O  XOX",
".O$;=$$&$$&$+O  O;=&%$%$$&OX .O;;$$$%&&$&$&$OX  .o&;&$&%$+O  XOX",
".O&;$$%%&&$$+O. O=;$$%$%%$@O .O;;$$&$$%$&&$$OX  .o&;;=$$$+O  XOX",
".O=;&$$$$%$&@OX O$;&$%$$%$#O XO;;$&$%%%$$$&$OX  .O#&;;;;=#O  XOX",
".O;;$&$$$$&$$OX O@;$&&&$$&$O XO;;&$$$$&$$&$%OX  .OO#&&&&&&#.XXOX",
".O;;&$$$$#%&$+O OO;&$%$$$%&O XO=;=$%%&%$&&%$@O  .OOOOOOOOOOXXOOX",
".O;;-$&&%$$$&@O OO*-$$$%$$$O XO&;;;=$$$&$&$$%@  XOXXXXXooOOOOOOX",
".O&;;;;------=$ OO%;;;;;;;;$ XO@&;;;;;;;;;;;*% .OX         .XXOX",
".O@&;;;;;;;;;;=XOOo%;;*%@oooooOO@@&=;;;;;;;;;*XXOooOOOOXXX    XX",
".OOOOOOOOOOOOOOooOOOOOOOOOOOOOOOOOOOOOooooooooXXXo&@OOOOOOOX  .X",
".OOoooooooooooooooooooooooooooooOOOOOOOOOOOOOOOOo@=$%%@OOOOO  .X",
".OXXXXXXXXXX...................XXOO=%#XX       Oo=$$$%$$&$OO  .X",
".Oo#OOOOOOOOOOOOoooXXX.          XO;=&%$@OOOO  O@=&$$%&&$%OO  .X",
".O#&#+++++++OOOOOOOOOOOOOOOOOooX  O;;&%%$%$%O Xo&=$$&&$%&$OO  .X",
".O&-&$&$%$$&$%$#+++OOOOOOOOOOOOo. X%;$&%&%%$X Xo;=&&$&&%$&OO  .X",
".o--&&$&$$##&$%$$%%$&$$$&#$$%$+OX  O;;&&%&%&  Oo;=$&#&&$&$OO  .X",
".o;-$&$$&$%$$&$$%##%$$%$$$$&$%%+OX XO%;;=$&&o O@;=$$&$%&%%OO  .X",
".o;-&$&$##%$$#$&$##$&$##$&$$$%%#OoX    $=;;# Oo$;$$%&%&$&$OO  .X",
".o;-&&$$##$&$&&$%$$$$%##$$$&$$%$+OoXX     XOOOo&;&$#&&%%$%OO  .X",
".o;-&$&$$$%$&$%%%$&$&$$$%$#$#&$$$+OOOOXX.   XOo;=$&$$$%$%%OO  .X",
".o;-$&$%$$$#$%%#&%$&$#&$$#%$%$%%%$&$$+OOOX.  Oo;=&$$$$##&$OO  .X",
".o;-&%&&%$&$&$&$$#%$%&$&$#&$&$%$&$&$$@++OOX. Xo;=%&$%%##$$OO  .X",
".o;-$%$&&%$&$$$$%$$%&%&$$&$&$&$&$#$$%$%$+OOX  o;=$&$$$%$$%OO  .X",
".O=;=$&$$&$$&$$&$%&&$%&&$$&$$&#$&$$&$&$%%+OX. o;=%$&$$$$&$OO  .X",
".O&;;===================================**&OX o;=&&$$$%%$$OO  .X",
".Oo&***************************************&X o;=&$&$$$&$&OO  .X",
".OOOOOOOOOOOOoooooooooooXXXXXXXOOOOOOOOOOOOOXXo;=$&$&%#$&$OO  .X",
".               XXXX...        XOOOOOOOOOOOOOXo;=&&%$$$$%&OO  .X",
". @OOOOOOOOOOO. XX      .....  XXXXXXXXXXXXXXOo;=$%$$$&#$$OO  .X",
". &@OO@##$$$$#O.  oOOOOOOOOOX               .Oo;;========&@O  .X",
". ;=$&$$%%$$%$O.  &@OOOOOOOOX  o&@ooXXXXXX  .Oo&;;;;;;;;;;&@  XX",
". ;=&$&$$$%$%&O.  =&$&$%&&@OX  o;&@OOOOOOoX .OOoooooo+@%&;;&  oX",
".O;=&#$$%%$%$&O.  ;=&$$$$$$OX  o;;&$$$%$OOX .OOOOOOOOOOOOoooooOX",
".O;=&$&$$%&$$$O. .;;%&%$%$$OX  o;;$$&%$$$OX .OOOXXX    .XXXoOOOX",
".O;=$&$&$$%&$&O. X;;&&$&$&$OX  o;;&$$&$&%OX .OOOOOOOXX.        X",
".O;=&%%%$&%%&$O. X;;&$$$$$$OX  o;;$&$$&$$OX .OOO*+++OOOOooXXX. X",
".O;=$&##%$$#%&O. o;;%&&%$$$OX  o;;&$$$%&$OX .OO@-$$$#@@++OOOoX X",
".O;=&&$$%$%$$&O. o;;&%$$$$$OX  o;;$$&$$$&OX .OO%-&$$%$$%$$&+OX X",
".O;=&%$%&%$$%%O. o;;*$&$&&$OX  o;;&%$%$&$OX .OO=-$$&$&%$&$$$+X X",
".O;=%&%%%$&$&#O. O;;=&$%$%$OX  o;;&&%$$$$OX .OO;-%$$&$$&$$%&+X X",
".O;=&%%$&$%&&#O. O;;&&$&&%$OX  o;;$$&$$&$OX .OO;-&%$$$&$$$$&+X X",
".O;=&&$$%$$%%@O. O;;=$%&$&$OX  o;;&&$%$$$OX .O+;-&&%%$$%$$&$+X X",
".O;=&&&$&$%$$+O. O;;&%&%$$$OX  o;;$&%$$%&OX .O@;-$&$&$&$$$$%+X X",
".O;=&$#&$$&$%Oo  #;;=$&$$%$OX .o;;&&$&$$&OX XO%;-$&$$%$$$$$$+X X",
".O;=&#&$&$&&$Oo X$;;=%&&$&$OX .o;;&$%$&$@o  XO*;-$%$&$&$%$$&+o X",
".O;=%&$&$%%$&OX X&;;$&&%%$@OX .o;;&&%%$@o  XOO=;-$$&&%$%$%$$+o X",
".O;=$&&&%$$%&O  o=;-%$%&$%@O  Xo*;*$&$$@O XOOO=;-%$%$&%$&$$$+o X",
".O;;=&$%$$&$#O  O=;=&$$$&$OO  XO&;;;;;&@OXOOOo=;;-%$&&$&$$&$+o X",
".O;;;========#  @;;=&$%&$$OO  oO@&*;;;;&OXOOOo=;;;----------*@ X",
".O;;;;**$$@OOO X#;;&&$$&$&OO  OOOoooooooooOOOO%=============%O X",
".OOOOOOOOO   XXO$;;&$&$$&$OO  OOOOOOOOOOOOOOOOOOOOOOOOOOOOOOOOOX"
};
