/* XPM */
static char *b92af88f389c4efa85e2e53cc8bf30ef5lhlPwCSM8JmrFIN[] = {
/* columns rows colors chars-per-pixel */
"64 64 15 1 ",
"  c #2F2F2F",
". c #373737",
"X c gray26",
"o c gray28",
"O c gray34",
"+ c #5B5B5B",
"@ c gray39",
"# c #6F6F6F",
"$ c gray50",
"% c #8B8B8B",
"& c #979797",
"* c #A7A7A7",
"= c gray70",
"- c gray75",
"; c LightGray",
/* pixels */
"&%%%%%%%%%%%%@.oO;===-*=-**&*&&@ oO&%%%%%%%%%%%@.oO;====-**&*&&@",
"*-==***=**&&%@ oO;===-*=-**&*&&@ oO*-==**=**&&%@ oO;====-**&*&&@",
"==-*==***&**%@ oO;====--=-**&*&@ oO==-*=***&**%@ oO;===-=-**&*&@",
"--==**=*=*&%&@ oO;-==-**-*=*&%*@ oO--==*=*=*&%&@ oO;-==*-*=*&%*@",
";===--**=*%&%@ oO;-=**==*=*=*&%@ oO;===-**=*%&%@ oO;-=*=*=*=*&%@",
";-====-**&*%&@ oO;-===*==***&*%@ oO;-===-**&*%&@ oO;-====***&*%@",
";=-=--=***&*%@ oO;-=-==-==***%&@ oO;=-=-=***&*%@ oO;-=--==***%&@",
";-=-==**-**%&@ oO;---=====**%&&@ oO;-=-=**-**%&@ oO;---===**%&&@",
";=-=--==***&%@ oO;--======**&%&@ oO;=-=-==***&%@ oO;--====**&%&@",
";-=-===*=&*%&@ oO;--==-==-=&*&%@ oO;-=-==*=&*%&@ oO;--===-=&*&%@",
";=-=====*=&&%@ oO--=--==-=*=&%&@ oO;=-====*=&&%@ oO--=-=-=*=&%&@",
";-=-===****%&@ oO=--===-===&%%%@ oO;-=-==****%&@ oO=--=-===&%%%@",
";===--***=&&%@ oO*--=======**%&@ oO;===-***=&&%@ oO*--=====**%&@",
";======-**&%&@ oO&$$$$$$$$$$$$$@ oO;=====-**&%&@ oO&$$$$$$$$$$$@",
";=====-**&*&&@ oOooooooooooooooo oO;====-**&*&&@ oOooooooooooooo",
";===--=-**&*&@ oOOOOOOOOOOOOOOOO oO;===-=-**&*&@ oOOOOOOOOOOOOOO",
";-==**-*=*&%*@ oOo.ooooooooooooo oO;-==*-*=*&%*@ oOooooooooooooo",
";-=*==*=*=*&%@ oOO#%%%%%%%%%%%%@ oO;-=*=*=*=*&%@ oO&%%%%%%%%%%%@",
";-==**=*=*&*%@ oO+$*=*=**=**&&%@ oO;-==*=*=*&*%@ oO*-==**=**&&%@",
";--===*=*&*%&@ oO$$#--*=***&**%@ oO;--==*=*&*%&@ oO==-*=***&**%@",
";-=====***&*%@ oO-&%$*-*=*=*&%&@ oO;-====***&*%@ oO--==*=*=*&%&@",
";-=---==***%&@ oO;===%*-*%%=*&%@ oO;-=--==***%&@ oO;===-**=*%&%@",
";---====**%&&@ oO;-==-%%%%%%==&@ oO;---===**%&&@ oO;-===-**&*%&@",
";--=====**&%&@ oO;=-==*&%&*%%$$@ oO;--====**&%&@ oO;=-=-=***&*%@",
";--====-=&*&%@ oO;-=-**=%*-*%%%O oO;--===-=&*&%@ oO;-=-=**-**%&@",
"--=-==-=*=&%&@ oO;=-===-&&***&%@ oO--=-=-=*=&%&@ oO;=-=-==***&%@",
"=--=--===&%%%@ oO;-=-=*==%&&*%&@ oO=--=-===&%%%@ oO;-=-==*=&*%&@",
"*--======**%&@ oO;=-=====&%*&&%@ oO*--=====**%&@ oO;=-====*=&&%@",
"&$$$$$$$$$$$$@ oO;-=-=*==*%=*%&@ oO&$$$$$$$$$$$@.oO;-=-==****%&@",
"oooooooooooooo.oO;===**-**%*&&%@ ooooooooooooooo.oO;===-***=&&%@",
"OOOOOOOOOOOOOOooO;====-==-%%&%&@ XOOOOOOOOOOOOOOooO;=====-**&%&@",
"oooooooooooooo.oO;===-*=-**%&&&@ oXooooooooooooo.oO;====-*%&=&&@",
"&%%%%%%%%%%%%@ oO;====--=-**%&&@ oO&%%%%%%%%%%%@.oO;===-=&*&&&&O",
"*-==***=**&&%@ oO;-==-**-*=*&%*@ oO*-==**=**&&%@ oO;-==*&*=*%&&@",
"==-*==***&**%@ oO;-=**==*=*=*&%O oO==-*=***&**%@ oO;-=*=*=*=*&%@",
"--==**=*=*&%&@ oO;-===**=*=*&*%O oO--==*=*=*&%&@ oO;-==*=*=*&*%@",
";===--**=*%&%@ oO;--=*==*=*&*%&@ oO;===-**=*%&%@ oO;--==*=*&*%&@",
";-====-**&*%&@ oO;-===*==***&*%@ oO;-===-**&*%&@ oO;-====***&*%@",
";=-=--=***&*%@ oO;-=-==-==***%&@ oO;=-=-=***&*%@ oO;-=--==***%&@",
";-=-==**-**%&@ oO;---=====**%&&@ oO;-=-=**-**%&@ oO;---===**%&&@",
";=-=--==***&%@ oO;--======**&%&@ oO;=-=-==***&%@ oO;--====**&%&@",
";-=-===*=&*%&@ oO;--==-==-=&*&%@ oO;-=-==*=&*%&@ oO;--===-=&*&%@",
";=-=====*=&&%@ oO--=--==-=*=&%&@ oO;=-====*=&&%@ oO--=-=-=*=&%&@",
";-=-===****%&@ oO=--===-===&%%%@ oO;-=-==****%&@ oO=--=-===&%%%@",
";===--***=&&%@ oO*--=======**%&@ oO;===-***=&&%@ oO*--=====**%&@",
";======-**&%&@ oO&$$$$$$$$$$$$$@ oO;=====-**&%&@ oO&$$$$$$$$$$$@",
";=====-**&*&&@ oOooooooooooooooo oO;====-**&*&&@ oOooooooooooooo",
";===--=-**&*&@ oOOOOOOOOOOOOOOOO oO;===-=-**&*&@ oOOOOOOOOOOOOOO",
";-==**-*=*&%*@ oOooooooooooooooo oO;-==*-*=*&%*@ oOooooooooooooo",
";-=*==*=*=*&%@ oO&%%%%%%%%%%%%%@ oO;-=*=*=*=*&%@ oO&%%%%%%%%%%%@",
";-==**=*=*&*%@ oO*-==*=**=**&&%@ oO;-==*=*=*&*%@ oO*-==**=**&&%@",
";--===*=*&*%&@ oO==-***=***&**%@ oO;--==*=*&*%&@ oO==-*=***&**%@",
";-=====***&*%@ oO--===**=*=*&%&@ oO;-====***&*%@ oO--==*=*=*&%&@",
";-=---==***%&@ oO;===**-**=*%&%@ oO;-=--==***%&@ oO;===-**=*%&%@",
";---====**%&&@ oO;-==-*=-**&*%&@ oO;---===**%&&@ oO;-===-**&*%&@",
";--=====**&%&@ oO;=-==*-=***&*%@ oO;--====**&%&@ oO;=-=-=***&*%@",
";--====-=&*&%@ oO;-=-**=**-**%&@ oO;--===-=&*&%@ oO;-=-=**-**%&@",
"--=-==-=*=&%&@ oO;=-===-==***&%@ oO--=-=-=*=&%&@ oO;=-=-==***&%@",
"=--=--===&%%%@ oO;-=-=*==*=&*%&@ oO=--=-===&%%%@ oO;-=-==*=&*%&@",
"*--======**%&@ oO;=-======*=&&%@ oO*--=====**%&@ oO;=-====*=&&%@",
"&$$$$$$$$$$$$@ oO;-=-=*==****%&@ oO&$$$$$$$$$$$@.oO;-=-==****%&@",
"oooooooooooooo.oO;===**-***=&&%@ oOoooooooooooooooO;===-***=&&%@",
"OOOOOOOOOOOOOOooO;====-==-**&%&@ oOOOOOOOOOOOOOOOoO;=====-**&%&@",
"ooooooooooooooooO;===-*=-**&*&&@ oOoooooooooooooooO;====-**&*&&@"
};
