/* XPM */
static char *cf2681197aef45f9d70944bef04cd2c7Ss4CMxTJYdDQv43m[] = {
/* columns rows colors chars-per-pixel */
"64 64 19 1 ",
"  c #332C14",
". c #3F2E17",
"X c #4B371B",
"o c #533F1F",
"O c #5F4324",
"+ c #6B4726",
"@ c #774F2B",
"# c #7F5330",
"$ c #875733",
"% c #8F5F37",
"& c #9B633B",
"* c #A36B3E",
"= c #B37347",
"- c #BF7B4B",
"; c #CB7F4F",
": c #CF8353",
"> c #D78B5B",
", c #DF9363",
"< c #EFA373",
/* pixels */
"=OOOOO++++OOO++@++@#$#+OO+##+OOX $O+@#@Oooo+@+O+@+OoOOO+++@#+OOX",
"-#$%%%%$$##$$%&&&&&=;:-&#$*=*%$OX-#$*-=%#@#&=%#%=*#@@#$&&*=*$@@O",
"-#$&&%%$####$&&&%%%&*;>-&$&==&$OX-#$*;=&$##&=&#%*&@O@#$&*==&#@@+",
"-#$&&&%$#@@#$&&%$%%%&=>>-&&=-*%OX-$%=:-&%$$*=&#%*%@O@#$&==*$#@@@",
">$$&*&%$##@#$&&%$%&&&&-::-=;:=%OX-%&-:-*&%%*=&$&*%@O@#%*=*%##@@@",
">%$&**&%####$&&&%%&&&&&====;:-&+o-&&=:;=*&&*=&$&*%@+@#%*=*$##@@@",
">&%&&&&%$###&**&%%&&&&&&&&*=--*+o:&*=;:-=**==*$&=&@@##%*=*$##@@@",
">*&&&&&%%$#$*--*%$%%%&&&&&&&*==@o:**==;;-=*=-*%&=&####%*=&$####@",
">==&&%%%%$$&*;:=&$$$%&&***&&*=-#O:*====;;-==;*%*=&###$%*=&#####@",
"-=;-&&%$$%&**=--*&$$$%&******=;%+>======;;==-*&&=&$##%&*&$#####@",
"-*::=&%%%&*=***==*%$$%&******=-%+,>>-***;:-=-=&&=*%#$&=*$######@",
"-&-:=&&&*===&&&*==&$$%&*******=%+,,>;=**;>-*=-&&*=&$%*=&#@@####@",
"-&-:-======&&%%&*==&$$%&******=$O,>>:=**;>-*=-*%&=*&&==%#@@####@",
"-&->:---=*&%%%$$&=-*%%%&*******$O>>>>;=*;:=*-;=%%*====*$#@#####@",
"-&-,,;==&&%%$$$#%*-=&%%&&******#O>>>>:;=;:=*-;=&$&=>>=&########@",
"-&->>-**&%%%$#$$$*--*&&&&&*****@o>:>>::;;:-=-;=&$$=>:&$########@",
">*;>:=**&&%%$##$$&==*&&%&&*****@o>->>--:-:;--;=%#$*-=$#########@",
">=:>>-***&&%####$&*=*&&%%&&****@o:-::-=*=-::;-*$##&=&########@@@",
">=:>>-****&%$###$%*=*%%%%%&&&**@o:*=;;=**=->>-&$##&=&######@@@@+",
">=:>>-*****&$###$%*=&$$$%%%%&**@o:**=--=**=:,:*%##*-=$####@@@@@@",
">=>,>;=****&%$###$&=*$#$$$$$%&*#O>***=-==**;,>-*%%=:-&##@@@@@@@@",
">=:>>:=*****&%$$$$&**&$#$$##$&*#O>=*&&=---=;>;--=&=>>*$#@@@@@@@@",
">=;>>>;=*****&%$$$$&**%$$####%*#O>=*&%&*-;::-=*;;==>,-&$#@++@###",
">*;>>>:;====**&%$$$%*=&$$$###$&@o>=*&%$%&-::-*&=:=*-:-=&$@O+@###",
">*-:>>::;;;;-=&%$$$%*=*$$$$##$&@o>=*&%$#$&-;-&$*-=&*-=**&#OO@###",
">*=:>>-***>,,;*&$$$%*=*%$$$###%@o:**&%$##%=;-&$&=*&*==***%@O@###",
">*=>,>;=**:,,,=&%$$%&==&$#$$$$%+o:**&%$###*:;*%&==&&==*&&*$@@###",
">*=:>>:=**=:,,-=&&%%&=-*$###$%%+o:&*&%$###*;-=&&*=&&=-*%%&&$###@",
">**;>>>;=*=->:-==*&&&*-=&####$%+o-&&&&%##$*==***==*&*-=&$$&&%###",
">**;>>>:;==-;:-===*&&&==*&####%+o-%&&&%$#$*=*&&*=-=&&=-*$##&&&&#",
"<::>,,,,,>>>>>>>>>>::::>>:--=--=*>-:::----:>:--:>>>::>>>----:::-",
"=ooOO++OO+OOO+OOOOOoooooOOoXXXo. OoooooXXXoOoXXXo++Ooo+OoXXXoooo",
"-@@@$%%$#####$%$@#$#@+++@$#+OO+o.$++++++O+@#+OooO#%$@#%#+OOOO@@@",
",*&*-:;=====*=;-**=-=*&&*-;*$$%+o-%$%&&%%&==&#@@#&;>--;=&$###&&=",
",=*=;:-=====*=--*&&=-=&&*-;=%#%+o:%$$%&%%*=*%#@+@$-,,;-*&$$##&&=",
",---;-===*****-;=&%*-=*&*=-=&$$+o:&%$$%%&=-*$@+OO#=<<;-*%%$#$&&*",
">;;;-====*****=;-&%&===***=-*%%+o-&&%%$$&=;=$@+OO#=<<:=*%%%$#%%*",
">:>-=*==******=--*%$&==***=-=&%+o-%&&&$$%=;=$@+OO#*>,;=*%%%%###&",
">>:=***********=-=%#$&==*&*-=&%OX-$&&&%$$*-*$@+OO+$=;--*%%&%###&",
">;-&&***********==&##%*==**--*%OX-$%&&&$%*=*$@@OOO+$=;;*%%%%$$$&",
">:-&%&***&&&*****=*$##&=-**-:=&OX-$%&&&%%*=*$#@+OOO@*>>=$$%%$$$&",
",>>*%&&&&&&&**&&&==%##$*==*-:=&OX-$%%%&&&&=*%#@@+OO+&:>=%#$%$$$*",
",>>=&&&&&&&&&&&&&*=*$##&==*=;=&OX-$$$$%&&&**&$@++OOO$*-=%#$$$%%*",
">--=*&&%%%%&&&&%%&==%##%*=**==&OX-$$$$$&&$%**%#@+OOO+#*=&##$%%%*",
">***==&%$$%%&&&&%&==&##$*=*&*=*+o-#$$$$%%##&*&$@++OOO@%*&##$%%%*",
">&$&-:=&$$$%%&%%&*=*%#@#&=*%&==+o-#$$$$%$##$**%#@+OOOO$*%##$%&&*",
",%#$=:-&$$$$%%%$&=-*$@@#&=*&&*=@o-##$%%%$###&**$@++OOO$&&##$%&&*",
",&@#&-=&%$$$$$$$%=-*$@++#&=***=#O:$#$%%%$###%*=&#++OOO@&&$##$&&*",
",&#@$*=*&$$###$$%*-=%#OO+#&====#O>*%$%&&%$##$*=&#@@+++@&*%##$&&*",
",&#@#&==&%$###$$$&==&#@OO@$*--=$O,;*%%&&&$##$*=&#@@@@@#&=*$#$%%&",
",&#@#%=-*%####$$$%=-*$@+O+#&=--$O,>-&%&*&%$#%*=*$######%*=*%$$$%",
",&#@#$*-=&$######$&==&#@++@$*-;$O,,>=&&&&%$$%*==%##$$$$%*--&$###",
",&#@@#&==*%$###@@#$&=*&#@@@#&*=$O>,>=&&&&%$$$&==*%$%%%%%&--*###@",
">%#@@#$&*=*%##@@@@@$&=*&####$&*@o>===*&&&&%$$%*-=&&&&&&&&==&#@@+",
">$#@##$%&**&%##@+++@$&=*&$##$%&@o:$%*=*&&&%%%%&=-=*****&&*=*#++O",
"-#####$$$%&***&$#@@@#$&=*&$##$&+o-##&==&%%%%%%&*=-=*****&&==$@@O",
"-###@#####%*--=*&&%%$$&*=*&$#$%+o-##$*=*&%%%%&&&=;;====*&&*=%@@o",
"-###@####@#&--**====*&&*==*%###OX-###&==&$$%&&&&*-:;===*&%&=&@@o",
"-@#@@####@#&=*%%&&*--==*=-=*%##OX-###$*=*$#$%&&**=;:-==*&%&*&##o",
"-@@@####@@@%**$###$&&&*=---=&%$OX-####&==&##$%&**=-:;=**&$%**##o",
"-@@@####@@@#&*&#@@@###$&=-===*%OX-####$&=*%##$%&**=;:-=&%$$**$$o",
"-+@@####@@@#$**%@+++++@#&=====*+o-##@@#$&*&$##$%&**=;;=*%$$&*%%O",
",------------>,>--------->,,<<<-=,------->,>----->>>,,,>---->>>-",
"oOOOOoooooOOO+++OOOOooooOOO++##OO@OOOOOOOO++OOOOOO++++++OOOOO++O"
};
